<?xml version="1.0" encoding="UTF-8" standalone="no"?><!DOCTYPE svg PUBLIC "-//W3C//DTD SVG 1.1//EN" "http://www.w3.org/Graphics/SVG/1.1/DTD/svg11.dtd"><svg width="100%" height="100%" viewBox="0 0 48 48" version="1.1" xmlns="http://www.w3.org/2000/svg" xmlns:xlink="http://www.w3.org/1999/xlink" xml:space="preserve" xmlns:serif="http://www.serif.com/" style="fill-rule:evenodd;clip-rule:evenodd;stroke-linecap:round;stroke-linejoin:round;stroke-miterlimit:1.5;"><path d="M36.96,14.797c-2.836,-2.692 -24.567,-4.059 -30.909,0.425c-0.637,0.451 -1.135,8.023 -0.735,12.042c0.15,1.506 -2.647,-0.596 -2.498,1.591c0.219,3.238 1.571,2.085 3.13,7.187c0.37,1.211 -0.008,0.162 1.734,3.509c2.249,4.319 8.64,5.59 13.695,5.802c6.16,0.258 16.066,-0.287 17.932,-6.148c0.309,-0.971 0.284,-3.223 0.891,-3.831c0.791,-0.793 7.454,-6.792 4.127,-13.501c-1.378,-2.777 -5.827,0.89 -5.723,-0.754c0.123,-1.94 -1.644,-6.322 -1.644,-6.322Z" style="fill:none;stroke:#231f20;stroke-width:3px;"/><path d="M40.432,26.181c0.247,0.113 -0.027,2.412 -0.232,2.674" style="fill:none;stroke:#231f20;stroke-width:3px;"/><path d="M31.971,18.037c-3.291,1.985 -20.936,1.716 -20.936,-0.743" style="fill:none;stroke:#231f20;stroke-width:3px;"/><path d="M13.312,35.787c-0.097,1.412 0.371,2.641 1.718,3.411c2.651,1.514 7.026,0.642 7.335,-2.27" style="fill:none;stroke:#231f20;stroke-width:3px;"/><path d="M27.68,33.702c0,0 0.289,0 0.3,0" style="fill:none;stroke:#231f20;stroke-width:3px;"/><path d="M11.046,31.579c0.038,-0.012 -0.038,-0.187 0,-0.2" style="fill:none;stroke:#231f20;stroke-width:3px;"/><path d="M22.76,7.593c0,-1.553 0,-3.106 0,-4.659" style="fill:none;stroke:#231f20;stroke-width:3px;"/><path d="M11.705,9.149c0,-2.107 -2.98,-3.833 -2.98,-5.447" style="fill:none;stroke:#231f20;stroke-width:3px;"/><path d="M34.092,9.149c1.731,0 3.197,-4.004 4.359,-4.004" style="fill:none;stroke:#231f20;stroke-width:3px;"/></svg>