<?xml version="1.0" encoding="UTF-8" standalone="no"?><!DOCTYPE svg PUBLIC "-//W3C//DTD SVG 1.1//EN" "http://www.w3.org/Graphics/SVG/1.1/DTD/svg11.dtd"><svg width="100%" height="100%" viewBox="0 0 48 48" version="1.1" xmlns="http://www.w3.org/2000/svg" xmlns:xlink="http://www.w3.org/1999/xlink" xml:space="preserve" xmlns:serif="http://www.serif.com/" style="fill-rule:evenodd;clip-rule:evenodd;stroke-linecap:round;stroke-linejoin:round;stroke-miterlimit:1.5;"><path id="body" d="M37.459,11.918c-2.953,-2.967 -25.575,-4.472 -32.177,0.469c-0.663,0.496 -1.181,8.841 -0.765,13.269c0.156,1.66 -2.755,-0.657 -2.601,1.754c0.228,3.567 1.636,2.296 3.259,7.919c0.385,1.334 -0.009,0.178 1.805,3.866c2.341,4.759 8.994,6.16 14.257,6.393c6.412,0.285 16.725,-0.316 18.667,-6.775c0.322,-1.069 0.296,-3.551 0.927,-4.22c0.824,-0.874 7.76,-7.484 4.297,-14.877c-1.434,-3.061 -6.066,0.98 -5.958,-0.832c0.128,-2.137 -1.711,-6.966 -1.711,-6.966Z" style="fill:none;stroke:#231f20;stroke-width:3px;"/><path d="M41.074,24.463c0.256,0.124 -0.029,2.658 -0.243,2.946" style="fill:none;stroke:#231f20;stroke-width:3px;"/><path d="M32.265,15.488c-3.426,2.188 -21.794,1.891 -21.794,-0.818" style="fill:none;stroke:#231f20;stroke-width:3px;"/><path d="M13.154,35.071c-0.101,1.551 0.368,2.9 1.722,3.743c0.893,0.555 1.981,0.816 3.046,0.797c2.113,-0.038 4.132,-1.179 4.343,-3.308" style="fill:none;stroke:#231f20;stroke-width:3px;"/><path d="M27.798,32.75c0,0 0.301,0 0.312,0" style="stroke:#231f20;stroke-width:3px;"/><path d="M10.482,30.41c0.039,-0.013 -0.04,-0.206 0,-0.219" style="fill:none;stroke:#231f20;stroke-width:3px;"/></svg>