<?xml version="1.0" encoding="UTF-8" standalone="no"?><!DOCTYPE svg PUBLIC "-//W3C//DTD SVG 1.1//EN" "http://www.w3.org/Graphics/SVG/1.1/DTD/svg11.dtd"><svg width="100%" height="100%" viewBox="0 0 48 48" version="1.1" xmlns="http://www.w3.org/2000/svg" xmlns:xlink="http://www.w3.org/1999/xlink" xml:space="preserve" xmlns:serif="http://www.serif.com/" style="fill-rule:evenodd;clip-rule:evenodd;stroke-linejoin:round;stroke-miterlimit:1.41421;"><path id="body" d="M37.459,11.918c-2.953,-2.967 -25.575,-4.472 -32.177,0.469c-0.663,0.496 -1.181,8.841 -0.765,13.269c0.156,1.66 -2.755,-0.657 -2.601,1.754c0.228,3.567 1.636,2.296 3.259,7.919c0.385,1.334 -0.009,0.178 1.805,3.866c2.341,4.759 8.994,6.16 14.257,6.393c6.412,0.285 16.725,-0.316 18.667,-6.775c0.322,-1.069 0.296,-3.551 0.927,-4.22c0.824,-0.874 7.76,-7.484 4.297,-14.877c-1.434,-3.061 -6.066,0.98 -5.958,-0.832c0.128,-2.137 -1.711,-6.966 -1.711,-6.966Z" style="fill:#ffd171;"/></svg>